<svg xmlns="http://www.w3.org/2000/svg" viewBox="0 0 32 32">
  <rect width="32" height="32" rx="8" fill="#0c0a09"/>
  <rect x="2" y="2" width="28" height="28" rx="7" fill="url(#g)"/>
  <defs>
    <linearGradient id="g" x1="0" y1="0" x2="1" y2="1">
      <stop offset="0%" stop-color="#fbbf24"/>
      <stop offset="100%" stop-color="#f59e0b"/>
    </linearGradient>
  </defs>
  <path d="M6 11a3 3 0 0 1 0 4v2a2 2 0 0 0 2 2h16a2 2 0 0 0 2-2v-2a3 3 0 0 1 0-4V9a2 2 0 0 0-2-2H8a2 2 0 0 0-2 2z" fill="none" stroke="#0c0a09" stroke-width="2" stroke-linecap="round" stroke-linejoin="round"/>
</svg>
